# xmcd
#
# Track frame offsets: 
#        150
#        22461
#        48694
#        67069
#        92879
#        113240
#        128385
#        152398
#        174979
#        197548
#        220807
#        243007
#        264907
#
# Disc length: 3840 seconds
#
# Revision: 0
# Processed by: cddbd v1.5.2PL0 Copyright (c) Steve Scherf et al.
# Submitted via: ExactAudioCopy v0.95b3
#
DISCID=ad0efe0d
DTITLE=Expulsion - Certain Corpses Never Decay [VIC036CD]
DYEAR=2014
DGENRE=Death Metal
TTITLE0=Extreme Hypothermia
TTITLE1=Whispers From The Abyss
TTITLE2=Old Time Entombed
TTITLE3=The Prophecy Of Doom
TTITLE4=Cerebral Cessation (Part I)
TTITLE5=Innominandum (Part II)
TTITLE6=Darkside
TTITLE7=Bastard Son Of God
TTITLE8=Veiled In The Mists Of Mystery
TTITLE9=Undersea (Part III)
TTITLE10=Soul Upheavel
TTITLE11=Lain Hidden
TTITLE12=Certain Corpses Never Decay
EXTD=
EXTT0=
EXTT1=
EXTT2=
EXTT3=
EXTT4=
EXTT5=
EXTT6=
EXTT7=
EXTT8=
EXTT9=
EXTT10=
EXTT11=
EXTT12=
PLAYORDER=
